<!-- Generated by IcoMoon.io -->
<svg version="1.1" xmlns="http://www.w3.org/2000/svg" width="32" height="32" viewBox="0 0 32 32">
<title>close</title>
<path d="M18.932 16.026l12.46-12.461c0.811-0.811 0.811-2.121 0-2.932s-2.121-0.811-2.931 0l-12.461 12.46-12.46-12.46c-0.811-0.811-2.121-0.811-2.932 0s-0.811 2.121 0 2.932l12.46 12.461-12.46 12.46c-0.811 0.811-0.811 2.121 0 2.931 0.374 0.375 0.892 0.607 1.463 0.607 0.001 0 0.002 0 0.002 0h-0c0.531 0 1.061-0.203 1.466-0.607l12.46-12.46 12.461 12.46c0.374 0.375 0.892 0.607 1.464 0.607 0.001 0 0.001 0 0.002 0h-0c0.531 0 1.061-0.203 1.466-0.607 0.811-0.811 0.811-2.121 0-2.931z"></path>
</svg>
